<?xml version="1.0" encoding="utf-8"?>
<!-- Generator: Adobe Illustrator 24.1.3, SVG Export Plug-In . SVG Version: 6.00 Build 0)  -->
<svg version="1.1" id="Layer_1" xmlns="http://www.w3.org/2000/svg" xmlns:xlink="http://www.w3.org/1999/xlink" x="0px" y="0px"
	 viewBox="0 0 20 20" style="enable-background:new 0 0 20 20;" xml:space="preserve">
<style type="text/css">
	.st0{fill:#4A4A4A;}
</style>
<path class="st0" d="M12.7,11.9c1.1-1.2,1.6-2.9,1.6-4.6c0-3.9-3.2-7.1-7.2-7.1c0,0,0,0-0.1,0c-1.9,0-3.7,0.8-5,2.2
	c-1.3,1.4-2,3.2-2,5.1c0,3.9,3.2,7.1,7.2,7.1c0,0,0,0,0.1,0c1.7,0,3.2-0.6,4.6-1.7l7.2,7.1l0.8-1.1L12.7,11.9z M7.3,13.2
	c-1.6,0-3-0.6-4.1-1.7C2,10.4,1.4,9,1.4,7.5c0-1.6,0.6-3,1.7-4.1c1.1-1.1,2.6-1.7,4.2-1.8c0,0,0,0,0,0c3.2,0,5.7,2.5,5.8,5.7
	C13.1,10.5,10.5,13.2,7.3,13.2C7.3,13.2,7.3,13.2,7.3,13.2z"/>
</svg>
